<?xml version="1.0" encoding="utf-8"?>
<!-- Generator: Adobe Illustrator 26.0.0, SVG Export Plug-In . SVG Version: 6.00 Build 0)  -->
<svg version="1.1" id="DESIGN" xmlns="http://www.w3.org/2000/svg" xmlns:xlink="http://www.w3.org/1999/xlink" x="0px" y="0px"
	 viewBox="0 0 562.6 660.6" style="enable-background:new 0 0 562.6 660.6;" xml:space="preserve">
<style type="text/css">
	.st0{fill:url(#SVGID_1_);}
	.st1{fill:url(#SVGID_00000000915500267428567650000015076352805878042519_);}
	.st2{fill:url(#SVGID_00000171695311111901796840000000158335444537263033_);}
	.st3{fill:url(#SVGID_00000102503298282905338620000002299207714393479322_);}
	.st4{fill:url(#SVGID_00000094605227672630745220000007121738026536399010_);}
	.st5{fill:url(#SVGID_00000073702991959196736130000014357782470579942553_);}
	.st6{fill:url(#SVGID_00000109709824332414838550000017492522746351500420_);}
	.st7{fill:url(#SVGID_00000179616327724285102040000004029450012106524053_);}
</style>
<g>
	<linearGradient id="SVGID_1_" gradientUnits="userSpaceOnUse" x1="551.7314" y1="-128.3887" x2="-168.2701" y2="1156.3196">
		<stop  offset="0" style="stop-color:#EC008C"/>
		<stop  offset="1" style="stop-color:#2E3192"/>
	</linearGradient>
	<path class="st0" d="M556.5,115.7C497,42.6,405.2-3.2,302.7,0.2C141.2,5.5,8.9,135.1,0.4,296.5c-4.4,83.3,23.9,159.9,73,218.4
		L43.8,632.7c-4.1,16.3,10.6,31.2,27,27.3l171.9-41.3c22.7,5.2,46.3,8.1,70.6,8.1c79.4,0,152-29.6,207.2-78.3
		c16.2-14.3,9.5-40.9-11.4-46.1l-71-18c-7-1.8-14.3-0.6-20.5,3.1c-30.6,18.4-66.5,28.9-104.8,28.8C205,516,115,429.5,110.6,321.7
		c-4.7-115.9,87.9-211.3,202.7-211.3c55.1,0,105,21.9,141.6,57.5c6.6,6.4,16.1,8.8,25,6.5l62.3-15.7
		C561.3,154.1,569,131,556.5,115.7z"/>
	
		<linearGradient id="SVGID_00000181079987338375728730000016774129299545120678_" gradientUnits="userSpaceOnUse" x1="495.6252" y1="-159.8327" x2="-224.3754" y2="1124.8739">
		<stop  offset="0" style="stop-color:#EC008C"/>
		<stop  offset="1" style="stop-color:#2E3192"/>
	</linearGradient>
	<circle style="fill:url(#SVGID_00000181079987338375728730000016774129299545120678_);" cx="232" cy="310.6" r="20.7"/>
	
		<linearGradient id="SVGID_00000151539857338972956670000014944640730905693114_" gradientUnits="userSpaceOnUse" x1="558.7089" y1="-124.4793" x2="-161.2921" y2="1160.2283">
		<stop  offset="0" style="stop-color:#EC008C"/>
		<stop  offset="1" style="stop-color:#2E3192"/>
	</linearGradient>
	<circle style="fill:url(#SVGID_00000151539857338972956670000014944640730905693114_);" cx="314.9" cy="310.6" r="20.7"/>
	
		<linearGradient id="SVGID_00000111171007118942036980000002918846437946757804_" gradientUnits="userSpaceOnUse" x1="621.7919" y1="-89.1247" x2="-98.2094" y2="1195.5833">
		<stop  offset="0" style="stop-color:#EC008C"/>
		<stop  offset="1" style="stop-color:#2E3192"/>
	</linearGradient>
	<circle style="fill:url(#SVGID_00000111171007118942036980000002918846437946757804_);" cx="397.8" cy="310.6" r="20.7"/>
</g>
<g>
	
		<linearGradient id="SVGID_00000027567896863871404410000009080231543745087912_" gradientUnits="userSpaceOnUse" x1="551.7314" y1="-128.3887" x2="-168.2701" y2="1156.3196">
		<stop  offset="0" style="stop-color:#EC008C"/>
		<stop  offset="1" style="stop-color:#2E3192"/>
	</linearGradient>
	<path style="fill:url(#SVGID_00000027567896863871404410000009080231543745087912_);" d="M556.5,115.7
		C497,42.6,405.2-3.2,302.7,0.2C141.2,5.5,8.9,135.1,0.4,296.5c-4.4,83.3,23.9,159.9,73,218.4L43.8,632.7
		c-4.1,16.3,10.6,31.2,27,27.3l171.9-41.3c22.7,5.2,46.3,8.1,70.6,8.1c79.4,0,152-29.6,207.2-78.3c16.2-14.3,9.5-40.9-11.4-46.1
		l-71-18c-7-1.8-14.3-0.6-20.5,3.1c-30.6,18.4-66.5,28.9-104.8,28.8C205,516,115,429.5,110.6,321.7
		c-4.7-115.9,87.9-211.3,202.7-211.3c55.1,0,105,21.9,141.6,57.5c6.6,6.4,16.1,8.8,25,6.5l62.3-15.7
		C561.3,154.1,569,131,556.5,115.7z"/>
	
		<linearGradient id="SVGID_00000071529678344005492450000000982522891335227796_" gradientUnits="userSpaceOnUse" x1="495.6252" y1="-159.8327" x2="-224.3754" y2="1124.8739">
		<stop  offset="0" style="stop-color:#EC008C"/>
		<stop  offset="1" style="stop-color:#2E3192"/>
	</linearGradient>
	<circle style="fill:url(#SVGID_00000071529678344005492450000000982522891335227796_);" cx="232" cy="310.6" r="20.7"/>
	
		<linearGradient id="SVGID_00000010997598533815907710000017534868447143976618_" gradientUnits="userSpaceOnUse" x1="558.7089" y1="-124.4793" x2="-161.2921" y2="1160.2283">
		<stop  offset="0" style="stop-color:#EC008C"/>
		<stop  offset="1" style="stop-color:#2E3192"/>
	</linearGradient>
	<circle style="fill:url(#SVGID_00000010997598533815907710000017534868447143976618_);" cx="314.9" cy="310.6" r="20.7"/>
	
		<linearGradient id="SVGID_00000059287990494244008260000011562158874305503668_" gradientUnits="userSpaceOnUse" x1="621.7919" y1="-89.1247" x2="-98.2094" y2="1195.5833">
		<stop  offset="0" style="stop-color:#EC008C"/>
		<stop  offset="1" style="stop-color:#2E3192"/>
	</linearGradient>
	<circle style="fill:url(#SVGID_00000059287990494244008260000011562158874305503668_);" cx="397.8" cy="310.6" r="20.7"/>
</g>
</svg>
